<svg width="236" height="80" viewBox="0 0 236 80" fill="none" xmlns="http://www.w3.org/2000/svg">
<path fill-rule="evenodd" clip-rule="evenodd" d="M14.2139 17.464L42.4285 17.5488V0.576782L14.2139 17.464Z" fill="white"/>
<path fill-rule="evenodd" clip-rule="evenodd" d="M26.7139 42.0187L42.3688 51.3911L42.4284 18.3546L26.7139 42.0187Z" fill="white"/>
<path fill-rule="evenodd" clip-rule="evenodd" d="M0 25.9543L26.1256 41.5862L13.8302 17.6676L0 25.9543Z" fill="white"/>
<path fill-rule="evenodd" clip-rule="evenodd" d="M210.42 0.356247V51.6709H236V46.8363H217.284V0.356247H210.42Z" fill="white"/>
<path fill-rule="evenodd" clip-rule="evenodd" d="M181.285 0.356247H174.293L184.278 25.6913L173.432 51.6709H180.099L189.214 30.6786L198.159 51.6709H204.997L193.623 25.6743L203.411 0.356247H196.743L188.873 19.4317L181.285 0.356247Z" fill="white"/>
<path fill-rule="evenodd" clip-rule="evenodd" d="M151.45 47.3113C147.502 47.3113 143.392 42.6803 143.392 26.4292C143.392 9.5929 146.632 4.43599 151.254 4.43599C155.884 4.43599 159.815 9.5929 159.815 26.4292C159.815 42.6803 155.389 47.3113 151.45 47.3113ZM151.254 0.31385C141.354 0.31385 135.053 5.85244 135.053 26.2765C135.053 46.9211 144.288 52.0865 151.45 52.0865C158.612 52.0865 167.642 46.9211 167.642 26.2765C167.642 5.85244 161.153 0.31385 151.254 0.31385Z" fill="white"/>
<path fill-rule="evenodd" clip-rule="evenodd" d="M101.527 0.356247V51.6709H128.164V46.9805H109.959V27.4385H125.589V22.816H109.959V4.6565H128.164V0.356247H101.527Z" fill="white"/>
<path fill-rule="evenodd" clip-rule="evenodd" d="M91.3117 1.22139C59.9166 -6.38675 58.6206 23.8677 77.7714 29.3724C82.7424 30.8058 87.4918 35.4962 85.9484 40.7888C83.3904 49.559 71.9477 46.6667 65.8 47.0908L65.6806 51.3062C76.8846 51.4758 94.4324 55.0043 94.6285 37.43C94.8076 21.5691 73.7127 23.944 73.9088 12.4512C74.0112 6.12385 76.032 3.42665 91.2264 4.90248C91.2179 4.90248 92.045 3.01104 91.3117 1.22139Z" fill="white"/>
<path d="M68.7843 66.3274V76.319C68.7843 76.3953 68.7673 76.4462 68.7332 76.4801C68.6991 76.5056 68.6479 76.5225 68.5797 76.5225H67.6162C67.5395 76.5225 67.4798 76.5056 67.4457 76.4801C67.4116 76.4547 67.403 76.4038 67.4116 76.319V65.369C67.4116 65.3011 67.4286 65.2587 67.4542 65.2248C67.4798 65.1994 67.5309 65.1739 67.6162 65.1654H74.0623C74.1305 65.1654 74.1732 65.1824 74.2073 65.2163C74.2329 65.2503 74.2584 65.3011 74.267 65.369V76.319C74.267 76.3953 74.2499 76.4462 74.2158 76.4801C74.1817 76.5056 74.1305 76.5225 74.0623 76.5225H73.0988C73.0221 76.5225 72.9624 76.5056 72.9283 76.4801C72.8942 76.4547 72.8857 76.4038 72.8942 76.319V66.3274H68.7843Z" fill="white"/>
<path d="M77.3281 79.8134V70.721C77.3195 70.3647 77.2769 70.0764 77.2172 69.8473C77.1575 69.6183 77.0637 69.3978 76.9444 69.1773C76.8676 69.0585 76.825 68.9907 76.825 68.9822C76.825 68.9737 76.825 68.9568 76.825 68.9483C76.825 68.9398 76.825 68.9228 76.8335 68.9059C76.842 68.8889 76.8676 68.8635 76.9102 68.8295L77.6265 68.38C77.6862 68.3461 77.7288 68.3291 77.78 68.3376C77.8226 68.3461 77.8652 68.3715 77.9164 68.4139C78.0017 68.5242 78.0954 68.6599 78.1722 68.8211C78.2575 68.9822 78.3171 69.1434 78.3598 69.313L78.4962 69.2112C78.9055 68.9144 79.2892 68.6938 79.6388 68.5496C79.9884 68.4054 80.338 68.3376 80.679 68.3376C81.5317 68.3461 82.2053 68.7108 82.6828 69.4233C83.1688 70.1357 83.4075 71.162 83.4075 72.4937C83.399 73.8677 83.1347 74.9194 82.6231 75.6489C82.1115 76.3868 81.3782 76.7515 80.4062 76.7515C80.0736 76.7515 79.7496 76.7006 79.4427 76.5988C79.1357 76.497 78.8458 76.3613 78.59 76.1832V79.5674C78.5815 79.6099 78.5644 79.6523 78.5388 79.6947C78.5133 79.7286 78.4877 79.754 78.4536 79.771L77.6521 79.9661C77.5071 80 77.4133 80 77.3707 79.9746C77.3366 79.9406 77.3195 79.8897 77.3281 79.8134ZM78.5985 70.2545V75.0891C78.8799 75.2587 79.1698 75.3859 79.4853 75.4877C79.8008 75.5895 80.0907 75.6404 80.3465 75.6404C80.9348 75.6404 81.3611 75.4283 81.634 74.9958C81.9068 74.5632 82.0433 73.7235 82.0433 72.4597C82.0347 71.3147 81.8898 70.5174 81.6255 70.0933C81.3611 69.6607 80.9519 69.4487 80.3891 69.4487C80.1418 69.4572 79.869 69.5335 79.562 69.6607C79.2636 69.788 78.9396 69.9915 78.5985 70.2545Z" fill="white"/>
<path d="M88.3614 68.3291C89.342 68.3291 90.135 68.6938 90.7404 69.4148C91.3543 70.1357 91.6612 71.179 91.6698 72.5361C91.6698 73.9101 91.3628 74.9449 90.7489 75.6574C90.135 76.3698 89.3335 76.7346 88.3614 76.743C87.3723 76.743 86.5708 76.3868 85.9655 75.6659C85.3515 74.9449 85.0531 73.9017 85.0531 72.5361C85.0531 71.179 85.3601 70.1357 85.9655 69.4233C86.5708 68.7108 87.3723 68.3461 88.3614 68.3291ZM88.3614 69.3554C87.6878 69.3554 87.1933 69.6353 86.8778 70.1951C86.5708 70.7549 86.4088 71.5352 86.4088 72.5361C86.4088 73.5539 86.5623 74.3342 86.8778 74.8855C87.1848 75.4369 87.6793 75.7168 88.3614 75.7168C89.0265 75.7168 89.5211 75.4369 89.8365 74.8855C90.152 74.3342 90.314 73.5454 90.314 72.5361C90.3055 71.5352 90.1435 70.7464 89.828 70.1951C89.5125 69.6353 89.0265 69.3554 88.3614 69.3554Z" fill="white"/>
<path d="M94.8844 68.5666H99.0965C99.1733 68.5666 99.2329 68.5836 99.2671 68.6175C99.3012 68.6514 99.3267 68.7108 99.3353 68.7956V75.4877H100.103C100.171 75.4962 100.222 75.5132 100.265 75.5302C100.307 75.5471 100.324 75.6065 100.341 75.7083V78.7532C100.341 78.8211 100.324 78.872 100.29 78.9059C100.256 78.9398 100.205 78.9568 100.137 78.9568H99.2671C99.1903 78.9483 99.1306 78.9229 99.0965 78.8974C99.0624 78.872 99.0539 78.8211 99.0624 78.7532V76.514H94.2193V78.7532C94.2193 78.8211 94.2022 78.872 94.1681 78.9059C94.134 78.9398 94.0829 78.9568 94.0147 78.9568H93.1449C93.0682 78.9483 93.0085 78.9229 92.9744 78.8974C92.9403 78.872 92.9318 78.8211 92.9403 78.7532V75.7083C92.9318 75.6065 92.9488 75.5471 92.9915 75.5302C93.0341 75.5132 93.0938 75.4962 93.1705 75.4877H93.6736C94.0402 74.7498 94.296 73.9865 94.4325 73.1892C94.5689 72.4004 94.6371 71.179 94.6371 69.5166V68.7871C94.6286 68.6854 94.6371 68.626 94.6797 68.609C94.7309 68.5921 94.7991 68.5751 94.8844 68.5666ZM98.0648 69.5929H95.8138V70.6871C95.8052 71.6455 95.737 72.5191 95.6091 73.3079C95.4812 74.0883 95.2766 74.8262 94.9867 75.4962H98.0648V69.5929Z" fill="white"/>
<path d="M102.354 68.5666H104.997C105.807 68.5751 106.421 68.7532 106.822 69.101C107.222 69.4402 107.427 69.9491 107.427 70.6277C107.419 71.0518 107.308 71.3995 107.112 71.6879C106.915 71.9763 106.643 72.1883 106.31 72.3156C106.762 72.4343 107.112 72.6718 107.359 73.0111C107.606 73.3503 107.725 73.7659 107.725 74.2409C107.717 74.9449 107.47 75.5047 107.001 75.9118C106.532 76.319 105.884 76.5225 105.074 76.5225H102.362C102.285 76.5225 102.234 76.5056 102.2 76.4801C102.175 76.4547 102.158 76.4038 102.158 76.319V68.7617C102.158 68.6938 102.175 68.6514 102.2 68.6175C102.217 68.5921 102.268 68.5751 102.354 68.5666ZM103.42 69.5929V71.866H104.963C105.347 71.866 105.645 71.7558 105.875 71.5437C106.105 71.3317 106.216 71.0348 106.216 70.6701C106.216 70.3308 106.097 70.0679 105.867 69.8813C105.628 69.7032 105.312 69.6014 104.912 69.5929H103.42ZM103.42 72.8838V75.4877H104.988C105.457 75.4877 105.816 75.3775 106.071 75.1485C106.327 74.9195 106.455 74.6056 106.455 74.1985C106.455 73.7744 106.336 73.4606 106.088 73.2401C105.841 73.0195 105.474 72.9008 104.988 72.8923H103.42V72.8838Z" fill="white"/>
<path d="M110.045 76.319V68.7617C110.045 68.7023 110.053 68.6599 110.07 68.626C110.087 68.5921 110.121 68.5666 110.164 68.5582L110.531 68.4733L111.068 68.3376C111.076 68.3376 111.102 68.3376 111.128 68.3291C111.153 68.3207 111.179 68.3207 111.204 68.3207C111.238 68.3207 111.264 68.3376 111.281 68.3631C111.298 68.3885 111.315 68.4224 111.324 68.4733V72.9602L111.273 74.5887H111.324C111.545 74.1476 111.716 73.8168 111.835 73.5963C111.955 73.3758 112.048 73.1977 112.125 73.062L114.675 68.643C114.683 68.6175 114.7 68.6006 114.717 68.5921C114.734 68.5836 114.751 68.5666 114.777 68.5582L115.672 68.3461C115.698 68.3461 115.715 68.3461 115.741 68.3461C115.766 68.3461 115.783 68.3376 115.809 68.3291C115.843 68.3291 115.868 68.3461 115.885 68.3716C115.903 68.397 115.92 68.4309 115.928 68.4818V76.319C115.928 76.3953 115.911 76.4462 115.877 76.4801C115.843 76.5056 115.792 76.5225 115.723 76.5225H114.854C114.777 76.5225 114.717 76.5056 114.683 76.4801C114.649 76.4547 114.641 76.4038 114.649 76.319V72.112L114.7 70.509H114.649C114.479 70.8143 114.334 71.1112 114.189 71.3826C114.052 71.654 113.933 71.866 113.848 72.0187L111.298 76.4462C111.273 76.4801 111.256 76.5056 111.23 76.514C111.204 76.5225 111.17 76.531 111.111 76.531H110.241C110.164 76.531 110.113 76.514 110.079 76.4886C110.062 76.4462 110.045 76.3953 110.045 76.319Z" fill="white"/>
<path d="M122.152 71.8745V68.7448C122.144 68.6854 122.144 68.643 122.17 68.609C122.195 68.5751 122.221 68.5497 122.272 68.5412L122.621 68.4564L123.167 68.3207C123.193 68.3207 123.21 68.3207 123.235 68.3122C123.261 68.3037 123.278 68.3037 123.304 68.3037C123.338 68.3037 123.363 68.3207 123.38 68.3461C123.397 68.3716 123.414 68.414 123.423 68.4564V71.866H123.986C124.276 71.866 124.497 71.7982 124.651 71.6625C124.804 71.5268 124.932 71.2978 125.017 70.9755L125.231 70.1103C125.35 69.6269 125.503 69.2621 125.674 69.0162C125.845 68.7702 126.075 68.5921 126.348 68.4818C126.45 68.4479 126.586 68.414 126.757 68.3716C126.927 68.3291 127.072 68.3122 127.183 68.3122C127.251 68.3122 127.303 68.3207 127.337 68.3461C127.371 68.3716 127.388 68.397 127.405 68.4479L127.584 69.1943C127.592 69.2621 127.584 69.3045 127.558 69.3385C127.533 69.3639 127.465 69.3894 127.371 69.3978L127.141 69.4318C126.996 69.4572 126.885 69.4911 126.8 69.5336C126.714 69.576 126.655 69.6353 126.612 69.7117C126.578 69.771 126.544 69.8474 126.501 69.9492C126.458 70.0509 126.424 70.1866 126.373 70.3393L126.194 71.0009C126.083 71.3911 125.938 71.6794 125.759 71.883C125.58 72.0866 125.359 72.2308 125.094 72.3071C125.359 72.3834 125.589 72.5107 125.768 72.6888C125.947 72.8669 126.092 73.0959 126.194 73.3673L126.714 74.9619C126.74 75.0637 126.774 75.157 126.825 75.2418C126.876 75.3266 126.927 75.3945 126.987 75.4199C127.03 75.4623 127.089 75.4962 127.166 75.5302C127.243 75.5556 127.345 75.5811 127.465 75.5895L127.661 75.6235C127.78 75.6489 127.848 75.6744 127.857 75.7083C127.865 75.7422 127.865 75.7931 127.857 75.861L127.644 76.6073C127.618 76.6413 127.592 76.6752 127.567 76.7006C127.541 76.7261 127.49 76.7431 127.405 76.7431C127.183 76.7346 126.987 76.7091 126.825 76.6837C126.655 76.6582 126.518 76.6158 126.39 76.5734C126.169 76.4886 125.989 76.3529 125.853 76.1748C125.717 75.9967 125.555 75.5895 125.376 74.9449L125.043 73.766C124.941 73.4436 124.821 73.2146 124.676 73.0874C124.531 72.9517 124.31 72.8923 124.011 72.8923H123.431V76.3699C123.423 76.4123 123.397 76.4462 123.372 76.4716C123.346 76.4971 123.304 76.5056 123.244 76.5056H122.349C122.28 76.5056 122.238 76.4971 122.204 76.4716C122.178 76.4462 122.161 76.4123 122.161 76.3699V72.8923H121.581C121.274 72.9008 121.044 72.9687 120.899 73.0959C120.754 73.2231 120.635 73.4436 120.549 73.766L120.217 74.9449C120.029 75.5811 119.867 75.9967 119.722 76.1748C119.586 76.3529 119.407 76.4801 119.194 76.5734C119.057 76.6158 118.912 76.6582 118.742 76.6922C118.571 76.7261 118.384 76.7431 118.179 76.7431C118.094 76.7346 118.034 76.7176 118 76.6922C117.974 76.6667 117.949 76.6413 117.94 76.6073L117.727 75.861C117.702 75.7931 117.702 75.7422 117.71 75.7083C117.719 75.6744 117.795 75.6489 117.923 75.6235L118.119 75.5895C118.23 75.5811 118.324 75.5556 118.401 75.5302C118.478 75.5047 118.546 75.4623 118.597 75.4199C118.64 75.386 118.691 75.3266 118.742 75.2418C118.793 75.157 118.836 75.0637 118.87 74.9619L119.39 73.3673C119.475 73.0874 119.612 72.8669 119.799 72.6888C119.978 72.5107 120.208 72.3834 120.49 72.3071C120.208 72.2308 119.987 72.0866 119.808 71.883C119.629 71.6794 119.492 71.3826 119.39 71.0009L119.211 70.3393C119.151 70.1866 119.108 70.0594 119.066 69.9492C119.023 69.8474 118.998 69.7626 118.972 69.7117C118.912 69.6353 118.844 69.576 118.767 69.5336C118.682 69.4911 118.571 69.4572 118.443 69.4318L118.213 69.3978C118.102 69.3894 118.034 69.3639 118.009 69.3385C117.983 69.313 117.974 69.2621 118 69.1943L118.179 68.4479C118.179 68.4055 118.196 68.3716 118.23 68.3461C118.264 68.3207 118.316 68.3122 118.401 68.3122C118.503 68.3122 118.64 68.3291 118.81 68.3716C118.981 68.4055 119.126 68.4479 119.236 68.4818C119.501 68.5921 119.722 68.7702 119.893 69.0162C120.063 69.2621 120.217 69.6269 120.353 70.1103L120.567 70.9755C120.643 71.2978 120.763 71.5268 120.916 71.6625C121.07 71.7982 121.3 71.866 121.598 71.866H122.152V71.8745Z" fill="white"/>
<path d="M134.78 75.0552L135.079 75.8016C135.079 75.827 135.079 75.844 135.087 75.8609C135.096 75.8779 135.096 75.8949 135.096 75.9033C135.087 75.9627 135.036 76.0136 134.934 76.0815C134.84 76.1408 134.687 76.2257 134.474 76.319C134.167 76.4547 133.851 76.5564 133.536 76.6243C133.22 76.6922 132.905 76.7346 132.598 76.7515C131.498 76.7515 130.619 76.3868 129.954 75.6659C129.289 74.9449 128.965 73.9017 128.965 72.5446C128.957 71.2384 129.264 70.2121 129.886 69.4657C130.517 68.7108 131.319 68.3376 132.291 68.3376C133.237 68.3461 133.97 68.6854 134.491 69.3554C135.011 70.0255 135.275 71.0518 135.292 72.4428V72.5276C135.284 72.6294 135.266 72.6972 135.241 72.7397C135.215 72.7821 135.173 72.8075 135.104 72.8075H130.321V72.8923C130.321 73.7066 130.526 74.3766 130.944 74.8771C131.361 75.386 131.916 75.6404 132.615 75.6404C132.896 75.6404 133.177 75.598 133.467 75.5047C133.757 75.4199 134.081 75.2672 134.448 75.0552C134.508 75.0297 134.542 75.0128 134.567 75.0043C134.593 74.9958 134.618 74.9788 134.653 74.9704C134.661 74.9704 134.678 74.9704 134.687 74.9704C134.695 74.9788 134.712 74.9958 134.729 75.0043C134.755 75.0212 134.763 75.0382 134.78 75.0552ZM130.33 71.7812H133.928C133.928 71.5352 133.902 71.2893 133.851 71.0433C133.8 70.7973 133.74 70.5683 133.663 70.3732C133.519 70.0509 133.322 69.805 133.075 69.6353C132.828 69.4657 132.529 69.3724 132.18 69.3639C131.617 69.3639 131.165 69.5844 130.841 70.017C130.509 70.4496 130.338 71.0348 130.33 71.7812Z" fill="white"/>
<path d="M138.677 72.9347V76.319C138.677 76.3953 138.66 76.4462 138.626 76.4801C138.592 76.5055 138.541 76.5225 138.472 76.5225H137.603C137.526 76.5225 137.475 76.5055 137.441 76.4801C137.415 76.4547 137.398 76.4038 137.398 76.319V68.7532C137.398 68.6938 137.407 68.6514 137.424 68.6175C137.441 68.5836 137.475 68.5581 137.518 68.5497L137.884 68.4648L138.421 68.3291C138.43 68.3291 138.455 68.3291 138.481 68.3206C138.507 68.3122 138.532 68.3122 138.558 68.3122C138.592 68.3122 138.617 68.3291 138.634 68.3546C138.652 68.38 138.669 68.4224 138.677 68.4648V71.9084H141.892V68.7447C141.892 68.6854 141.9 68.643 141.917 68.609C141.934 68.5751 141.968 68.5497 142.011 68.5412L142.906 68.3291C142.932 68.3291 142.949 68.3291 142.975 68.3206C143 68.3122 143.017 68.3122 143.043 68.3122C143.077 68.3122 143.102 68.3291 143.12 68.3546C143.137 68.38 143.154 68.4224 143.162 68.4648V76.319C143.154 76.3953 143.128 76.4462 143.102 76.4801C143.077 76.5055 143.026 76.5225 142.957 76.5225H142.088C142.011 76.5225 141.951 76.5055 141.917 76.4801C141.883 76.4547 141.875 76.4038 141.883 76.319V72.9347H138.677Z" fill="white"/>
<path d="M145.925 76.319V68.7617C145.925 68.7023 145.933 68.6599 145.95 68.626C145.967 68.5921 146.001 68.5666 146.044 68.5582L146.411 68.4733L146.948 68.3376C146.956 68.3376 146.982 68.3376 147.008 68.3291C147.033 68.3207 147.059 68.3207 147.084 68.3207C147.118 68.3207 147.144 68.3376 147.161 68.3631C147.178 68.3885 147.195 68.4224 147.204 68.4733V72.9602L147.153 74.5887H147.204C147.425 74.1476 147.596 73.8168 147.715 73.5963C147.835 73.3758 147.929 73.1977 148.005 73.062L150.555 68.643C150.563 68.6175 150.58 68.6006 150.597 68.5921C150.614 68.5836 150.631 68.5666 150.657 68.5582L151.552 68.3461C151.578 68.3461 151.595 68.3461 151.621 68.3461C151.646 68.3461 151.663 68.3376 151.689 68.3291C151.723 68.3291 151.748 68.3461 151.765 68.3716C151.783 68.397 151.8 68.4309 151.808 68.4818V76.319C151.808 76.3953 151.791 76.4462 151.757 76.4801C151.723 76.5056 151.672 76.5225 151.603 76.5225H150.734C150.657 76.5225 150.597 76.5056 150.563 76.4801C150.529 76.4547 150.521 76.4038 150.529 76.319V72.112L150.58 70.509H150.529C150.359 70.8143 150.214 71.1112 150.069 71.3826C149.932 71.654 149.813 71.866 149.728 72.0187L147.178 76.4462C147.153 76.4801 147.136 76.5056 147.11 76.514C147.084 76.5225 147.05 76.531 146.991 76.531H146.121C146.044 76.531 145.993 76.514 145.959 76.4886C145.933 76.4462 145.925 76.3953 145.925 76.319Z" fill="white"/>
<path d="M159.695 75.0552L159.994 75.8016C159.994 75.827 159.994 75.844 160.002 75.8609C160.011 75.8779 160.011 75.8949 160.011 75.9033C160.002 75.9627 159.951 76.0136 159.849 76.0815C159.755 76.1408 159.601 76.2257 159.388 76.319C159.081 76.4547 158.766 76.5564 158.45 76.6243C158.135 76.6922 157.819 76.7346 157.512 76.7515C156.412 76.7515 155.534 76.3868 154.869 75.6659C154.204 74.9449 153.88 73.9017 153.88 72.5446C153.872 71.2384 154.178 70.2121 154.801 69.4657C155.432 68.7108 156.233 68.3376 157.205 68.3376C158.152 68.3461 158.885 68.6854 159.405 69.3554C159.925 70.0255 160.19 71.0518 160.207 72.4428V72.5276C160.198 72.6294 160.181 72.6972 160.156 72.7397C160.13 72.7821 160.087 72.8075 160.019 72.8075H155.236V72.8923C155.236 73.7066 155.44 74.3766 155.858 74.8771C156.276 75.386 156.83 75.6404 157.529 75.6404C157.811 75.6404 158.092 75.598 158.382 75.5047C158.672 75.4199 158.996 75.2672 159.363 75.0552C159.414 75.0297 159.456 75.0128 159.482 75.0043C159.508 74.9958 159.533 74.9788 159.567 74.9704C159.576 74.9704 159.593 74.9704 159.601 74.9704C159.61 74.9788 159.627 74.9958 159.644 75.0043C159.67 75.0212 159.687 75.0382 159.695 75.0552ZM155.244 71.7812H158.843C158.843 71.5352 158.817 71.2893 158.766 71.0433C158.715 70.7973 158.655 70.5683 158.578 70.3732C158.433 70.0509 158.237 69.805 157.99 69.6353C157.743 69.4657 157.444 69.3724 157.095 69.3639C156.532 69.3639 156.08 69.5844 155.756 70.017C155.432 70.4496 155.261 71.0348 155.244 71.7812Z" fill="white"/>
<path d="M167.472 72.9008V76.3783C167.463 76.4207 167.437 76.4547 167.412 76.4801C167.386 76.5056 167.344 76.514 167.284 76.514H166.389C166.32 76.514 166.278 76.5056 166.244 76.4801C166.218 76.4547 166.201 76.4207 166.201 76.3783V68.7532C166.201 68.6939 166.21 68.6515 166.227 68.6175C166.244 68.5836 166.278 68.5581 166.32 68.5497L166.653 68.4649L167.216 68.3291C167.224 68.3291 167.241 68.3291 167.267 68.3291C167.292 68.3291 167.31 68.3207 167.335 68.3122H167.352C167.386 68.3207 167.412 68.3376 167.429 68.3631C167.446 68.3885 167.463 68.414 167.472 68.4479C167.472 68.4564 167.472 68.4648 167.472 68.4564C167.472 68.4479 167.472 68.4564 167.472 68.4649V71.8576H168.188C168.478 71.8576 168.699 71.7897 168.853 71.654C169.006 71.5183 169.134 71.2893 169.219 70.967L169.433 70.1018C169.552 69.6184 169.705 69.2537 169.876 69.0077C170.047 68.7617 170.277 68.5836 170.55 68.4733C170.652 68.4394 170.788 68.4055 170.959 68.3631C171.129 68.3207 171.274 68.3037 171.385 68.3037C171.453 68.3037 171.505 68.3122 171.539 68.3376C171.573 68.3631 171.598 68.3885 171.607 68.4394L171.786 69.1858C171.795 69.2537 171.786 69.2961 171.76 69.33C171.735 69.3554 171.667 69.3809 171.573 69.3894L171.343 69.4233C171.198 69.4487 171.087 69.4827 171.01 69.5251C170.933 69.5675 170.874 69.6269 170.831 69.6947C170.788 69.7541 170.746 69.8304 170.703 69.9322C170.66 70.034 170.626 70.1697 170.575 70.3393L170.396 71.0009C170.285 71.3911 170.14 71.6794 169.961 71.883C169.782 72.0866 169.561 72.2308 169.296 72.3071C169.561 72.3834 169.791 72.5107 169.97 72.6888C170.149 72.8669 170.294 73.0959 170.396 73.3673L170.916 74.9619C170.942 75.0637 170.976 75.157 171.027 75.2418C171.078 75.3266 171.129 75.3945 171.189 75.4199C171.232 75.4623 171.291 75.4962 171.368 75.5302C171.445 75.5556 171.547 75.5811 171.667 75.5895L171.863 75.6235C171.982 75.6489 172.05 75.6744 172.059 75.7083C172.067 75.7422 172.067 75.7931 172.059 75.861L171.846 76.6073C171.82 76.6413 171.795 76.6752 171.769 76.7006C171.743 76.7261 171.692 76.7431 171.607 76.7431C171.385 76.7431 171.189 76.7261 171.027 76.6922C170.865 76.6582 170.72 76.6243 170.592 76.5734C170.371 76.4886 170.192 76.3529 170.055 76.1748C169.919 75.9967 169.757 75.5895 169.578 74.9449L169.245 73.766C169.143 73.4436 169.023 73.2146 168.878 73.0874C168.733 72.9517 168.512 72.8923 168.213 72.8923H167.472V72.9008Z" fill="white"/>
<path d="M182.947 68.8126V76.319C182.947 76.3953 182.93 76.4462 182.896 76.4801C182.862 76.5055 182.811 76.5225 182.743 76.5225H181.873C181.796 76.5225 181.745 76.5055 181.711 76.4801C181.685 76.4547 181.668 76.4038 181.668 76.319V69.5929H179.622V69.805C179.622 70.3223 179.596 70.9924 179.545 71.8151C179.494 72.6379 179.451 73.257 179.4 73.6811C179.298 74.4869 179.127 75.1145 178.88 75.5641C178.633 76.0136 178.3 76.3359 177.883 76.531C177.763 76.5904 177.635 76.6328 177.507 76.6667C177.379 76.7006 177.192 76.7261 176.936 76.7515C176.902 76.7515 176.868 76.7515 176.834 76.7515C176.774 76.743 176.74 76.7176 176.706 76.6921C176.68 76.6667 176.655 76.6243 176.646 76.5649L176.476 75.9203C176.45 75.844 176.459 75.7846 176.484 75.7422C176.51 75.6998 176.595 75.6659 176.723 75.6404L176.876 75.6234C177.2 75.5895 177.465 75.4538 177.686 75.2078C177.9 74.9619 178.062 74.6056 178.164 74.1307C178.241 73.7235 178.3 73.0704 178.343 72.1798C178.386 71.2893 178.411 70.3308 178.411 69.3045V68.7871C178.403 68.6854 178.411 68.626 178.445 68.609C178.479 68.5836 178.548 68.5666 178.641 68.5581H182.709C182.777 68.5666 182.828 68.5921 182.871 68.6345C182.93 68.6769 182.947 68.7362 182.947 68.8126Z" fill="white"/>
<path d="M190.528 68.4818L191.346 68.8126C191.355 68.8211 191.372 68.838 191.397 68.8635C191.423 68.8889 191.44 68.9059 191.448 68.9144C191.448 68.9483 191.448 68.9737 191.457 68.9992C191.465 69.0246 191.457 69.067 191.431 69.1349L189.385 75.9118C189.104 76.8024 188.899 77.4555 188.754 77.8541C188.609 78.2613 188.481 78.5666 188.37 78.7871C188.149 79.1858 187.867 79.4826 187.518 79.6947C187.177 79.8982 186.801 80 186.401 80C186.247 79.9915 186.094 79.9746 185.949 79.9491C185.804 79.9237 185.659 79.8982 185.514 79.8643C185.335 79.8049 185.147 79.7371 184.943 79.6438C184.738 79.5505 184.576 79.4657 184.448 79.3893C184.371 79.33 184.329 79.2791 184.312 79.2282C184.303 79.1773 184.303 79.1264 184.329 79.067L184.661 78.4054C184.67 78.363 184.687 78.3376 184.704 78.3291C184.721 78.3206 184.746 78.3206 184.781 78.3206C184.789 78.3206 184.806 78.3206 184.823 78.3206C184.84 78.3206 184.926 78.38 185.079 78.4903C185.301 78.6345 185.522 78.7532 185.753 78.838C185.983 78.9228 186.179 78.9737 186.358 78.9737C186.443 78.9737 186.537 78.9568 186.622 78.9313C186.708 78.9059 186.793 78.8719 186.87 78.8211C187.015 78.7193 187.151 78.5666 187.27 78.363C187.39 78.1595 187.518 77.8881 187.637 77.5573L187.987 76.514H187.39C187.33 76.514 187.287 76.5055 187.253 76.4971C187.219 76.4886 187.194 76.4377 187.168 76.3613L184.55 69.0585C184.516 68.9992 184.508 68.9568 184.533 68.9059C184.559 68.8635 184.593 68.8295 184.653 68.8041L185.284 68.5581L185.437 68.4903C185.463 68.4818 185.488 68.4648 185.531 68.4563C185.574 68.4479 185.608 68.4394 185.642 68.4394C185.676 68.4394 185.71 68.4479 185.736 68.4733C185.761 68.4987 185.787 68.5242 185.812 68.5751L187.91 74.8346C187.944 74.9534 187.978 75.0721 188.012 75.1909C188.046 75.3096 188.114 75.5641 188.225 75.9627L188.242 76.0306H188.276C188.302 75.8609 188.328 75.6913 188.362 75.5132C188.396 75.335 188.447 75.123 188.532 74.8685L190.195 68.5751C190.195 68.5412 190.212 68.5072 190.246 68.4818C190.28 68.4563 190.314 68.4394 190.366 68.4394C190.391 68.4394 190.417 68.4479 190.451 68.4563C190.476 68.4733 190.502 68.4818 190.528 68.4818Z" fill="white"/>
<path d="M198.15 68.4648V76.319C198.142 76.3953 198.116 76.4462 198.091 76.4801C198.065 76.5055 198.014 76.5225 197.946 76.5225H197.076C196.999 76.5225 196.948 76.5055 196.914 76.4801C196.888 76.4547 196.871 76.4038 196.871 76.319V73.274C196.564 73.3843 196.266 73.4691 195.985 73.52C195.703 73.5793 195.447 73.5963 195.2 73.5878C194.757 73.5878 194.356 73.52 193.998 73.3927C193.64 73.257 193.367 73.0789 193.162 72.8414C192.992 72.6633 192.872 72.4513 192.796 72.2053C192.719 71.9593 192.676 71.637 192.676 71.2384V68.7447C192.676 68.6854 192.685 68.643 192.702 68.609C192.719 68.5751 192.753 68.5497 192.796 68.5412L193.699 68.3291C193.725 68.3291 193.742 68.3291 193.768 68.3206C193.793 68.3122 193.81 68.3122 193.836 68.3122C193.87 68.3122 193.896 68.3291 193.913 68.3546C193.93 68.38 193.947 68.4224 193.955 68.4648V71.3741C193.955 71.7388 194.075 72.0272 194.313 72.2392C194.552 72.4513 194.902 72.553 195.371 72.553C195.618 72.553 195.857 72.5276 196.087 72.4767C196.317 72.4258 196.581 72.3495 196.871 72.2392V68.7447C196.863 68.6938 196.863 68.643 196.888 68.609C196.914 68.5751 196.948 68.5497 196.991 68.5412L197.886 68.3291C197.912 68.3291 197.929 68.3291 197.954 68.3206C197.98 68.3122 197.997 68.3122 198.022 68.3122C198.057 68.3206 198.082 68.3376 198.108 68.3631C198.142 68.3885 198.15 68.4224 198.15 68.4648Z" fill="white"/>
<path d="M202.183 75.4877H204.486V68.7447C204.486 68.6854 204.494 68.643 204.511 68.609C204.528 68.5751 204.562 68.5497 204.605 68.5412L205.5 68.3291C205.526 68.3291 205.543 68.3291 205.569 68.3206C205.594 68.3122 205.611 68.3122 205.637 68.3122C205.671 68.3206 205.696 68.3376 205.722 68.3631C205.748 68.3885 205.756 68.4224 205.756 68.4648V75.4877H208.058V68.7447C208.058 68.6854 208.067 68.643 208.084 68.609C208.101 68.5751 208.135 68.5497 208.178 68.5412L209.073 68.3291C209.099 68.3291 209.116 68.3291 209.141 68.3291C209.167 68.3291 209.184 68.3206 209.209 68.3122C209.243 68.3122 209.269 68.3291 209.286 68.3546C209.303 68.38 209.32 68.4224 209.329 68.4648V76.319C209.32 76.3953 209.295 76.4462 209.269 76.4801C209.243 76.5055 209.192 76.5225 209.124 76.5225H201.126C201.049 76.5225 200.998 76.5055 200.964 76.4801C200.939 76.4547 200.922 76.4038 200.922 76.319V68.7532C200.922 68.6938 200.93 68.6514 200.947 68.6175C200.964 68.5836 200.998 68.5581 201.041 68.5497L201.936 68.3376C201.962 68.3376 201.979 68.3376 202.004 68.3291C202.03 68.3206 202.047 68.3206 202.073 68.3206C202.107 68.3291 202.132 68.3461 202.149 68.3715C202.166 68.397 202.183 68.4309 202.192 68.4733V75.4877H202.183Z" fill="white"/>
<path d="M217.224 75.0552L217.523 75.8016C217.523 75.827 217.523 75.844 217.531 75.8609C217.54 75.8779 217.54 75.8949 217.54 75.9033C217.531 75.9627 217.48 76.0136 217.378 76.0815C217.284 76.1408 217.131 76.2257 216.917 76.319C216.61 76.4547 216.295 76.5564 215.98 76.6243C215.664 76.6922 215.349 76.7346 215.042 76.7515C213.942 76.7515 213.063 76.3868 212.398 75.6659C211.733 74.9449 211.409 73.9017 211.409 72.5446C211.401 71.2384 211.708 70.2121 212.33 69.4657C212.961 68.7108 213.763 68.3376 214.735 68.3376C215.681 68.3461 216.414 68.6854 216.934 69.3554C217.455 70.0255 217.719 71.0518 217.736 72.4428V72.5276C217.727 72.6294 217.71 72.6972 217.685 72.7397C217.659 72.7821 217.617 72.8075 217.548 72.8075H212.765V72.8923C212.765 73.7066 212.97 74.3766 213.387 74.8771C213.805 75.386 214.359 75.6404 215.059 75.6404C215.34 75.6404 215.621 75.598 215.911 75.5047C216.201 75.4199 216.525 75.2672 216.892 75.0552C216.943 75.0297 216.986 75.0128 217.011 75.0043C217.037 74.9958 217.062 74.9788 217.096 74.9704C217.105 74.9704 217.122 74.9704 217.131 74.9704C217.139 74.9788 217.156 74.9958 217.173 75.0043C217.199 75.0212 217.216 75.0382 217.224 75.0552ZM212.773 71.7812H216.372C216.372 71.5352 216.346 71.2893 216.295 71.0433C216.244 70.7973 216.184 70.5683 216.107 70.3732C215.962 70.0509 215.766 69.805 215.519 69.6353C215.272 69.4657 214.973 69.3724 214.624 69.3639C214.061 69.3639 213.609 69.5844 213.285 70.017C212.961 70.4496 212.791 71.0348 212.773 71.7812Z" fill="white"/>
<path d="M221.641 68.7108L222.937 72.341C222.98 72.4767 223.022 72.6379 223.074 72.8245C223.116 73.0111 223.167 73.2316 223.227 73.4691H223.278C223.312 73.2994 223.355 73.1044 223.423 72.8754C223.483 72.6463 223.534 72.4682 223.585 72.341L224.864 68.7108C224.873 68.6514 224.89 68.6175 224.915 68.6005C224.941 68.5836 224.975 68.5666 225.018 68.5581H226.203C226.246 68.5581 226.28 68.5751 226.297 68.6005C226.314 68.626 226.331 68.6599 226.339 68.7108L226.774 76.3783C226.774 76.4207 226.766 76.4547 226.74 76.4801C226.715 76.5055 226.689 76.514 226.638 76.514H225.691C225.632 76.514 225.598 76.5055 225.58 76.4886C225.563 76.4716 225.555 76.4377 225.555 76.3783L225.376 70.6277C225.367 70.6277 225.359 70.6277 225.367 70.6362C225.376 70.6446 225.376 70.4326 225.376 70.017H225.342C225.308 70.1697 225.282 70.2969 225.265 70.3902C225.248 70.4835 225.231 70.5683 225.205 70.6277L223.807 74.6565C223.773 74.7329 223.747 74.7837 223.73 74.8092C223.713 74.8346 223.671 74.8346 223.602 74.8262H222.92C222.843 74.8262 222.792 74.8177 222.775 74.8007C222.758 74.7838 222.741 74.7329 222.716 74.6565L221.334 70.6277C221.309 70.5853 221.292 70.5174 221.266 70.4326C221.24 70.3478 221.215 70.2036 221.181 70.017H221.147C221.138 70.4411 221.138 70.6446 221.147 70.6277L220.968 76.3783C220.959 76.4377 220.942 76.4716 220.925 76.4886C220.908 76.5055 220.882 76.514 220.831 76.514H219.885C219.825 76.514 219.791 76.5055 219.765 76.4801C219.74 76.4547 219.74 76.4207 219.748 76.3783L220.183 68.7108C220.183 68.6684 220.192 68.6345 220.217 68.6005C220.243 68.5751 220.277 68.5581 220.337 68.5581H221.505C221.539 68.5581 221.564 68.5751 221.59 68.6005C221.59 68.6345 221.616 68.6684 221.641 68.7108Z" fill="white"/>
<path d="M234.218 68.4818L235.037 68.8126C235.045 68.8211 235.062 68.838 235.088 68.8635C235.113 68.8889 235.13 68.9059 235.139 68.9144C235.139 68.9483 235.139 68.9737 235.147 68.9992C235.156 69.0246 235.147 69.067 235.122 69.1349L233.075 75.9118C232.794 76.8024 232.589 77.4555 232.444 77.8541C232.299 78.2613 232.172 78.5666 232.061 78.7871C231.839 79.1858 231.558 79.4826 231.208 79.6947C230.867 79.8982 230.492 80 230.091 80C229.938 79.9915 229.784 79.9746 229.639 79.9491C229.494 79.9237 229.349 79.8982 229.204 79.8643C229.025 79.8049 228.838 79.7371 228.633 79.6438C228.428 79.5505 228.266 79.4657 228.138 79.3893C228.062 79.33 228.019 79.2791 228.002 79.2282C227.994 79.1773 227.994 79.1264 228.019 79.067L228.352 78.4054C228.36 78.363 228.377 78.3376 228.394 78.3291C228.411 78.3206 228.437 78.3206 228.471 78.3206C228.48 78.3206 228.497 78.3206 228.514 78.3206C228.531 78.3206 228.616 78.38 228.769 78.4903C228.991 78.6345 229.213 78.7532 229.443 78.838C229.673 78.9228 229.869 78.9737 230.048 78.9737C230.134 78.9737 230.227 78.9568 230.313 78.9313C230.398 78.9059 230.483 78.8719 230.56 78.8211C230.705 78.7193 230.841 78.5666 230.961 78.363C231.08 78.1595 231.208 77.8881 231.327 77.5573L231.677 76.514H231.08C231.02 76.514 230.978 76.5055 230.944 76.4971C230.91 76.4886 230.884 76.4377 230.858 76.3613L228.241 69.0585C228.207 68.9992 228.198 68.9568 228.224 68.9059C228.249 68.8635 228.283 68.8295 228.343 68.8041L228.974 68.5581L229.128 68.4903C229.153 68.4818 229.179 68.4648 229.221 68.4563C229.264 68.4479 229.298 68.4394 229.332 68.4394C229.366 68.4394 229.4 68.4479 229.426 68.4733C229.452 68.4987 229.477 68.5242 229.503 68.5751L231.6 74.8346C231.634 74.9534 231.668 75.0721 231.703 75.1909C231.737 75.3096 231.805 75.5641 231.916 75.9627L231.933 76.0306H231.967C231.993 75.8609 232.018 75.6913 232.052 75.5132C232.086 75.335 232.137 75.123 232.223 74.8685L233.885 68.5751C233.885 68.5412 233.902 68.5072 233.937 68.4818C233.971 68.4563 234.005 68.4394 234.056 68.4394C234.082 68.4394 234.107 68.4479 234.141 68.4563C234.167 68.4733 234.192 68.4818 234.218 68.4818Z" fill="white"/>
</svg>
